<svg width="153" height="42" viewBox="0 0 153 42" fill="none" xmlns="http://www.w3.org/2000/svg">
<path d="M19.4972 41.7556H5.98267L19.4972 21.319H33.0118L19.4972 41.7556Z" fill="#242424"/>
<path d="M14.5526 0.223145H28.3967L14.5526 21.3189H0.708496L14.5526 0.223145Z" fill="#242424"/>
<path d="M60.5821 18.0011C60.5821 19.2542 60.2799 20.4293 59.6756 21.5261C59.0937 22.6225 58.165 23.5065 56.8895 24.1781C55.6361 24.8493 54.0472 25.1851 52.1226 25.1851H48.1946V34.1817H43.495V10.75H52.1226C53.9353 10.75 55.4794 11.0633 56.755 11.69C58.031 12.3166 58.9818 13.1782 59.6087 14.2748C60.2578 15.3714 60.5821 16.6135 60.5821 18.0011ZM51.9209 21.3916C53.219 21.3916 54.1813 21.1009 54.8082 20.5187C55.4347 19.9147 55.748 19.0754 55.748 18.0011C55.748 15.7184 54.4724 14.577 51.9209 14.577H48.1946V21.3916H51.9209Z" fill="#242424"/>
<path d="M67.2759 18.4714C67.8803 17.4866 68.6634 16.7145 69.6257 16.1551C70.6106 15.5956 71.7296 15.3158 72.983 15.3158V20.2504H71.7406C70.2637 20.2504 69.1448 20.5973 68.3838 21.2914C67.6453 21.9852 67.2759 23.1935 67.2759 24.9168V34.182H62.5763V15.5844H67.2759V18.4714Z" fill="#242424"/>
<path d="M83.0639 34.4849C81.2734 34.4849 79.662 34.0934 78.2298 33.3102C76.7976 32.5045 75.6672 31.3741 74.8393 29.9194C74.0336 28.4646 73.6306 26.7864 73.6306 24.8839C73.6306 22.9819 74.0447 21.3032 74.873 19.8485C75.7233 18.3938 76.8759 17.2748 78.3306 16.4915C79.7854 15.6858 81.4078 15.283 83.1984 15.283C84.9885 15.283 86.611 15.6858 88.0657 16.4915C89.5205 17.2748 90.6619 18.3938 91.4902 19.8485C92.3405 21.3032 92.7657 22.9819 92.7657 24.8839C92.7657 26.7864 92.3291 28.4646 91.4566 29.9194C90.6058 31.3741 89.4421 32.5045 87.9652 33.3102C86.5105 34.0934 84.8766 34.4849 83.0639 34.4849ZM83.0639 30.3893C83.9143 30.3893 84.7089 30.1879 85.4473 29.7853C86.2083 29.3601 86.8127 28.7332 87.26 27.9054C87.7078 27.0771 87.9316 26.0701 87.9316 24.8839C87.9316 23.1159 87.4617 21.7621 86.5216 20.8219C85.604 19.8596 84.4739 19.3786 83.1311 19.3786C81.7883 19.3786 80.6579 19.8596 79.7407 20.8219C78.8452 21.7621 78.3979 23.1159 78.3979 24.8839C78.3979 26.6519 78.8341 28.0173 79.7071 28.9796C80.6021 29.9194 81.7211 30.3893 83.0639 30.3893Z" fill="#242424"/>
<path d="M99.5698 30.4566H104.617V34.1829H94.8701V7.86414H99.5698V30.4566Z" fill="#242424"/>
<path d="M108.263 13.3696C107.435 13.3696 106.741 13.1122 106.182 12.5975C105.644 12.0604 105.376 11.4002 105.376 10.6169C105.376 9.83358 105.644 9.18456 106.182 8.66982C106.741 8.1327 107.435 7.86414 108.263 7.86414C109.091 7.86414 109.773 8.1327 110.31 8.66982C110.87 9.18456 111.15 9.83358 111.15 10.6169C111.15 11.4002 110.87 12.0604 110.31 12.5975C109.773 13.1122 109.091 13.3696 108.263 13.3696ZM110.579 15.5852V34.1829H105.879V15.5852H110.579Z" fill="#242424"/>
<path d="M124.186 15.3158C126.401 15.3158 128.192 16.0208 129.557 17.4307C130.922 18.8183 131.605 20.7654 131.605 23.2718V34.182H126.905V23.9098C126.905 22.4325 126.536 21.3025 125.797 20.519C125.058 19.7133 124.051 19.3106 122.776 19.3106C121.478 19.3106 120.448 19.7133 119.687 20.519C118.949 21.3025 118.58 22.4325 118.58 23.9098V34.182H113.88V15.5844H118.58V17.9007C119.206 17.095 120.001 16.4684 120.963 16.0208C121.947 15.5508 123.022 15.3158 124.186 15.3158Z" fill="#242424"/>
<path d="M152.019 24.4813C152.019 25.1525 151.975 25.7569 151.885 26.294H138.289C138.401 27.6368 138.871 28.6885 139.699 29.4495C140.527 30.2105 141.545 30.591 142.754 30.591C144.5 30.591 145.742 29.8411 146.48 28.3416H151.549C151.012 30.1322 149.983 31.6091 148.461 32.7731C146.939 33.9142 145.07 34.4849 142.855 34.4849C141.064 34.4849 139.453 34.0934 138.021 33.3102C136.611 32.5045 135.503 31.3741 134.697 29.9194C133.914 28.4646 133.522 26.7864 133.522 24.8839C133.522 22.9593 133.914 21.2696 134.697 19.8149C135.48 18.3602 136.577 17.2412 137.987 16.4579C139.397 15.6746 141.02 15.283 142.855 15.283C144.623 15.283 146.201 15.6634 147.588 16.4243C148.998 17.1853 150.084 18.2707 150.845 19.6808C151.628 21.0683 152.019 22.6682 152.019 24.4813ZM147.152 23.1385C147.129 21.9298 146.693 20.9675 145.842 20.2512C144.992 19.5127 143.951 19.1437 142.721 19.1437C141.557 19.1437 140.572 19.5016 139.766 20.2179C138.983 20.9117 138.502 21.8851 138.323 23.1385H147.152Z" fill="#242424"/>
</svg>
