<svg width="200" height="42" viewBox="0 0 200 42" fill="none" xmlns="http://www.w3.org/2000/svg">
<path d="M0.0194092 28.0096L14.2057 21.6953L22.3711 26.4308L24.0207 41.9664L13.9583 41.8837L15.4429 31.083L13.7108 30.0861L5.21553 36.7327L0.0194092 28.0096Z" fill="#242424"/>
<path d="M23.2788 25.7664L35.8158 34.9879L40.7644 26.0988L30.7017 22.0279V20.034L40.7644 15.8801L35.8158 7.07373L23.2788 16.2955V25.7664Z" fill="#242424"/>
<path d="M22.3711 15.5479L24.0207 0.012207L13.9583 0.178371L15.4429 10.9786L13.7108 11.9755L5.13306 5.32926L0.0194092 13.9694L14.2057 20.2834L22.3711 15.5479Z" fill="#242424"/>
<path d="M74.3344 19.1286V33.6836H79.7498V15.1346H71.8632V19.1286H74.3344Z" fill="#242424"/>
<path d="M74.1651 12.5278C74.6616 13.0467 75.4175 13.3061 76.4328 13.3061C77.4487 13.3061 78.1928 13.0467 78.6664 12.5278C79.1634 11.986 79.4111 11.309 79.4111 10.4969C79.4111 9.66185 79.1634 8.98489 78.6664 8.46599C78.1928 7.92445 77.4487 7.65356 76.4328 7.65356C75.4175 7.65356 74.6616 7.92445 74.1651 8.46599C73.6915 8.98489 73.4545 9.66185 73.4545 10.4969C73.4545 11.309 73.6915 11.986 74.1651 12.5278Z" fill="#242424"/>
<path d="M55.4816 33.2769C57.0158 33.9763 58.8999 34.3263 61.1335 34.3263C63.2324 34.3263 65.0372 33.9987 66.5496 33.3445C68.0614 32.6904 69.2232 31.7762 70.0356 30.6027C70.8708 29.4068 71.2879 28.0191 71.2879 26.4394C71.2879 24.9051 70.8938 23.6076 70.1038 22.5469C69.3361 21.4639 68.2649 20.6177 66.8878 20.0086C65.5113 19.3765 63.9207 18.9817 62.1153 18.8239L60.22 18.6546C59.0917 18.5642 58.2793 18.2597 57.7829 17.7406C57.2864 17.2217 57.0381 16.6123 57.0381 15.913C57.0381 15.3712 57.174 14.8749 57.444 14.4236C57.7152 13.9497 58.1211 13.5774 58.6629 13.3065C59.227 13.0359 59.9153 12.9004 60.7276 12.9004C61.5847 12.9004 62.2959 13.0582 62.86 13.3744C62.9842 13.4411 63.1021 13.5125 63.2128 13.5883L63.2397 13.6071C63.2811 13.6357 63.3219 13.6654 63.3616 13.6954C63.7043 13.9573 63.9771 14.2677 64.1801 14.6266C64.4731 15.1232 64.6207 15.6759 64.6207 16.2853H70.0356C70.0356 14.6604 69.6632 13.2501 68.919 12.0542C68.1743 10.8357 67.1025 9.89934 65.7036 9.24469C64.3266 8.56773 62.6683 8.22925 60.7276 8.22925C58.877 8.22925 57.2752 8.54536 55.921 9.17709C54.5675 9.78651 53.5068 10.6665 52.7398 11.8171C51.9945 12.968 51.6221 14.3334 51.6221 15.913C51.6221 18.1017 52.3562 19.8617 53.8227 21.1932C55.2893 22.5246 57.2528 23.2918 59.7123 23.4948L61.5741 23.664C63.0854 23.7995 64.1801 24.1041 64.8572 24.5778C65.5337 25.0291 65.8725 25.6497 65.8725 26.4394C65.8725 26.8025 65.8132 27.1428 65.6941 27.4609C65.6058 27.697 65.485 27.9207 65.3313 28.132C64.9695 28.6056 64.4395 28.9779 63.7401 29.2491C63.0406 29.5197 62.1718 29.655 61.1335 29.655C59.9829 29.655 59.0464 29.4973 58.3246 29.1809C57.6023 28.8426 57.0611 28.4026 56.6993 27.8614C56.3611 27.3195 56.1922 26.733 56.1922 26.101H50.8103C50.8103 27.7032 51.205 29.125 51.9945 30.3656C52.7845 31.5845 53.9469 32.5551 55.4816 33.2769Z" fill="#242424"/>
<path d="M91.8332 33.9187C89.9602 33.9187 88.4484 33.6934 87.2978 33.2417C86.1466 32.7681 85.3007 31.9893 84.7589 30.9063C84.24 29.8004 83.9806 28.3115 83.9806 26.4384V19.0934H81.1711V15.1333H83.9806V10.1239H89.0237V15.1333H94.4397V19.0934H89.0237V26.6417C89.0237 27.5217 89.2496 28.1986 89.7008 28.6721C90.1743 29.1239 90.8402 29.3492 91.6979 29.3492H94.4397V33.9187H91.8332Z" fill="#242424"/>
<path fill-rule="evenodd" clip-rule="evenodd" d="M100.96 33.5135C102.178 34.0547 103.578 34.3258 105.157 34.3258C106.714 34.3258 108.091 34.0547 109.287 33.5135C110.483 32.9717 111.476 32.2158 112.265 31.2458C113.055 30.2752 113.586 29.1692 113.856 27.9286H108.88C108.655 28.4927 108.226 28.9663 107.594 29.3498C106.962 29.7334 106.15 29.9257 105.157 29.9257C104.542 29.9257 103.993 29.8525 103.508 29.7071C103.14 29.5964 102.809 29.4438 102.517 29.2486C101.84 28.7974 101.343 28.1651 101.028 27.3531C100.94 27.1217 100.865 26.8797 100.802 26.6276C100.737 26.3722 100.685 26.1065 100.646 25.8299H114.194V24.002C114.194 22.3096 113.833 20.7527 113.111 19.3311C112.389 17.8868 111.34 16.7247 109.964 15.8446C108.61 14.942 106.94 14.4907 104.954 14.4907C103.442 14.4907 102.088 14.7616 100.892 15.3032C99.7193 15.8221 98.7375 16.5328 97.9475 17.4355C97.1581 18.3381 96.5486 19.365 96.1192 20.5158C95.7133 21.6439 95.5104 22.8285 95.5104 24.0696V24.7466C95.5104 25.9427 95.7133 27.116 96.1192 28.2669C96.5486 29.3951 97.1581 30.4216 97.9475 31.347C98.7599 32.2499 99.7635 32.9717 100.96 33.5135ZM100.74 22.483C100.755 22.4113 100.77 22.3407 100.788 22.2712C100.835 22.0799 100.889 21.8965 100.95 21.7212C100.985 21.6215 101.022 21.5242 101.062 21.4296C101.4 20.5946 101.896 19.9629 102.551 19.5342C102.795 19.3739 103.06 19.2436 103.345 19.1434C103.824 18.9752 104.36 18.891 104.954 18.891C105.879 18.891 106.646 19.1055 107.255 19.5342C107.887 19.9403 108.361 20.5382 108.677 21.328C108.703 21.3918 108.727 21.4566 108.75 21.5223C108.788 21.6269 108.823 21.7343 108.855 21.8444C108.903 22.0082 108.944 22.1777 108.981 22.353C109.008 22.4821 109.031 22.6144 109.052 22.7498H100.688C100.703 22.6593 100.721 22.5705 100.74 22.483Z" fill="#242424"/>
<path d="M116.429 33.6826V15.1337H120.728V19.8054C120.786 19.5276 120.853 19.2611 120.927 19.0055C120.991 18.7902 121.059 18.5825 121.134 18.3831C121.608 17.1193 122.319 16.1717 123.266 15.5397C124.214 14.8854 125.376 14.5583 126.753 14.5583H126.99C128.389 14.5583 129.551 14.8854 130.476 15.5397C131.424 16.1717 132.135 17.1193 132.608 18.3831L132.646 18.4784L132.678 18.5657C132.699 18.504 132.721 18.4433 132.744 18.3831C133.24 17.1193 133.963 16.1717 134.91 15.5397C135.858 14.8854 137.02 14.5583 138.397 14.5583H138.634C140.032 14.5583 141.206 14.8854 142.153 15.5397C143.124 16.1717 143.858 17.1193 144.354 18.3831C144.85 19.6468 145.099 21.2264 145.099 23.1218V33.6826H139.683V22.8171C139.683 21.8017 139.412 20.9781 138.87 20.3463C138.352 19.7143 137.607 19.3985 136.637 19.3985C135.666 19.3985 134.899 19.7258 134.335 20.3802C133.771 21.0119 133.489 21.8581 133.489 22.9188V33.6826H128.039V22.8171C128.039 21.8017 127.768 20.9781 127.227 20.3463C126.708 19.7143 125.974 19.3985 125.027 19.3985C124.034 19.3985 123.255 19.7258 122.691 20.3802C122.127 21.0119 121.845 21.8581 121.845 22.9188V33.6826H116.429Z" fill="#242424"/>
<path fill-rule="evenodd" clip-rule="evenodd" d="M159.565 30.1086V33.6829H163.863V22.3097C163.863 20.5946 163.525 19.1957 162.848 18.1124C162.171 17.0068 161.178 16.1831 159.869 15.6417C158.584 15.1001 156.992 14.8292 155.097 14.8292C154.686 14.8292 154.257 14.8336 153.81 14.8426C153.546 14.8481 153.275 14.8548 152.998 14.863C152.253 14.8856 151.531 14.9195 150.832 14.9647L150.298 15.0006C150.023 15.0197 149.765 15.0386 149.523 15.0576C149.34 15.0718 149.168 15.086 149.004 15.1001V19.6696C149.704 19.6244 150.482 19.5792 151.34 19.5342C151.58 19.5216 151.817 19.51 152.053 19.4991C152.394 19.4832 152.73 19.4696 153.063 19.4576C153.326 19.4481 153.586 19.4396 153.845 19.4325C154.656 19.4099 155.311 19.3988 155.808 19.3988C156.801 19.3988 157.522 19.6356 157.974 20.1095C158.425 20.5834 158.651 21.2942 158.651 22.2421V22.3097H155.3C153.653 22.3097 152.197 22.5241 150.933 22.9528C149.67 23.3589 148.688 24.0021 147.989 24.8821C147.289 25.7397 146.94 26.8454 146.94 28.1992C146.94 29.4404 147.221 30.5122 147.786 31.4152C148.35 32.2946 149.128 32.9717 150.121 33.4453C151.137 33.9194 152.31 34.1564 153.641 34.1564C154.928 34.1564 156.011 33.9194 156.891 33.4453C157.794 32.9717 158.493 32.2946 158.989 31.4152C159.077 31.2665 159.158 31.1127 159.234 30.9528C159.342 30.7269 159.437 30.4893 159.522 30.2399L159.565 30.1086ZM158.651 26.8116V25.3222H155.266C154.318 25.3222 153.585 25.559 153.066 26.033C152.57 26.4843 152.321 27.1048 152.321 27.8945C152.321 28.2663 152.383 28.604 152.507 28.9087C152.631 29.214 152.818 29.4852 153.066 29.7222C153.585 30.174 154.318 30.3993 155.266 30.3993C155.446 30.3993 155.621 30.3903 155.789 30.373C155.927 30.3585 156.06 30.3378 156.189 30.3115C156.438 30.2612 156.672 30.1885 156.891 30.0946C157.388 29.8693 157.794 29.4969 158.109 28.9775C158.425 28.4586 158.606 27.7363 158.651 26.8116Z" fill="#242424"/>
<path d="M167.104 33.6826V15.1337H171.403V21.2561C171.609 19.5083 172.129 18.0991 172.961 17.0292C174.089 15.6076 175.713 14.8969 177.835 14.8969H178.545V19.5677H177.191C175.702 19.5677 174.551 19.9738 173.739 20.7863C172.926 21.576 172.52 22.7269 172.52 24.2386V33.6826H167.104Z" fill="#242424"/>
<path d="M185.413 25.0174H187.207L193.062 33.6828H199.155L191.73 23.0407L197.835 15.1338H192.149L185.413 23.9534V8.97351H179.997V33.6828H185.413V25.0174Z" fill="#242424"/>
</svg>
