<svg width="212" height="32" viewBox="0 0 212 32" fill="none" xmlns="http://www.w3.org/2000/svg">
<path d="M40.0339 28.7001V1.69202H44.9724L57.6661 20.7136V1.69202H62.6047V28.7001H57.6661L44.9724 9.71727V28.7001H40.0339Z" fill="#242424"/>
<path d="M75.0944 29.1631C73.1651 29.1631 71.4548 28.7513 69.963 27.9283C68.4712 27.1053 67.3008 25.9478 66.4518 24.456C65.6029 22.9638 65.1786 21.2406 65.1786 19.2858C65.1786 17.3051 65.5901 15.5432 66.4134 13.9999C67.262 12.4566 68.4196 11.2605 69.8857 10.4117C71.3775 9.53715 73.1267 9.09985 75.1329 9.09985C77.0109 9.09985 78.6696 9.51141 80.1102 10.3345C81.5507 11.1576 82.6695 12.2894 83.4668 13.7298C84.2902 15.1445 84.7017 16.7264 84.7017 18.4755C84.7017 18.7584 84.6889 19.0542 84.6628 19.3629C84.6628 19.6716 84.65 19.993 84.6244 20.3276H70.0787C70.1815 21.8194 70.6959 22.9898 71.6221 23.8384C72.5735 24.6873 73.7183 25.1116 75.056 25.1116C76.0591 25.1116 76.8948 24.8931 77.5637 24.456C78.2582 23.9929 78.7725 23.4013 79.1071 22.6812H84.1229C83.7626 23.89 83.1582 24.9959 82.3093 25.999C81.4863 26.9765 80.4576 27.7482 79.2228 28.3142C78.014 28.8801 76.6379 29.1631 75.0944 29.1631ZM75.1329 13.1125C73.924 13.1125 72.8565 13.4597 71.9307 14.1542C71.0045 14.823 70.4129 15.8519 70.1559 17.2408H79.6859C79.6086 15.9805 79.1455 14.9773 78.297 14.2314C77.448 13.4854 76.3933 13.1125 75.1329 13.1125Z" fill="#242424"/>
<path d="M83.7938 28.7003L90.7385 19.1317L83.7938 9.56311H89.0798L93.941 16.3537L98.7639 9.56311H104.088L97.1047 19.1317L104.088 28.7003H98.7639L93.941 21.9097L89.0798 28.7003H83.7938Z" fill="#242424"/>
<path d="M113.833 28.6997C111.826 28.6997 110.219 28.211 109.009 27.2335C107.801 26.2561 107.196 24.5197 107.196 22.0249V13.6909H103.917V9.56255H107.196L107.775 4.43103H112.135V9.56255H117.305V13.6909H112.135V22.0633C112.135 22.9895 112.328 23.6323 112.713 23.9926C113.125 24.3268 113.819 24.4941 114.797 24.4941H117.189V28.6997H113.833Z" fill="#242424"/>
<path d="M119.616 28.7V9.56284H123.976L124.4 12.1479C125.018 11.2219 125.828 10.4888 126.831 9.94866C127.86 9.3828 129.043 9.09985 130.381 9.09985C133.339 9.09985 135.435 10.2445 136.67 12.5338C137.364 11.4791 138.29 10.6432 139.448 10.0258C140.631 9.40854 141.917 9.09985 143.306 9.09985C145.801 9.09985 147.717 9.84579 149.055 11.3377C150.392 12.8296 151.061 15.0159 151.061 17.8967V28.7H146.123V18.3597C146.123 16.7136 145.801 15.4532 145.158 14.5786C144.541 13.7041 143.576 13.2668 142.264 13.2668C140.927 13.2668 139.846 13.7555 139.023 14.7329C138.226 15.7104 137.827 17.0737 137.827 18.8227V28.7H132.889V18.3597C132.889 16.7136 132.567 15.4532 131.924 14.5786C131.281 13.7041 130.291 13.2668 128.953 13.2668C127.641 13.2668 126.574 13.7555 125.751 14.7329C124.954 15.7104 124.555 17.0737 124.555 18.8227V28.7H119.616Z" fill="#242424"/>
<path d="M163.003 29.1631C161.151 29.1631 159.479 28.7385 157.988 27.8899C156.521 27.0409 155.351 25.8705 154.476 24.3787C153.627 22.8609 153.203 21.1121 153.203 19.1314C153.203 17.1508 153.64 15.4146 154.515 13.9227C155.389 12.4051 156.56 11.2219 158.026 10.3731C159.518 9.52426 161.19 9.09985 163.042 9.09985C164.868 9.09985 166.514 9.52426 167.98 10.3731C169.472 11.2219 170.642 12.4051 171.491 13.9227C172.366 15.4146 172.803 17.1508 172.803 19.1314C172.803 21.1121 172.366 22.8609 171.491 24.3787C170.642 25.8705 169.472 27.0409 167.98 27.8899C166.488 28.7385 164.829 29.1631 163.003 29.1631ZM163.003 24.8803C164.289 24.8803 165.408 24.4043 166.36 23.4525C167.311 22.4754 167.787 21.0349 167.787 19.1314C167.787 17.228 167.311 15.8004 166.36 14.8487C165.408 13.8713 164.302 13.3826 163.042 13.3826C161.73 13.3826 160.598 13.8713 159.646 14.8487C158.72 15.8004 158.257 17.228 158.257 19.1314C158.257 21.0349 158.72 22.4754 159.646 23.4525C160.598 24.4043 161.717 24.8803 163.003 24.8803Z" fill="#242424"/>
<path d="M179.518 28.7003L172.496 9.56311H177.666L182.527 24.0316L187.389 9.56311H192.559L185.498 28.7003H179.518Z" fill="#242424"/>
<path d="M202.101 29.1631C200.172 29.1631 198.462 28.7513 196.97 27.9283C195.478 27.1053 194.308 25.9478 193.459 24.456C192.61 22.9638 192.185 21.2406 192.185 19.2858C192.185 17.3051 192.597 15.5432 193.42 13.9999C194.269 12.4566 195.426 11.2605 196.892 10.4117C198.384 9.53715 200.133 9.09985 202.14 9.09985C204.018 9.09985 205.677 9.51141 207.117 10.3345C208.557 11.1576 209.676 12.2894 210.474 13.7298C211.297 15.1445 211.708 16.7264 211.708 18.4755C211.708 18.7584 211.696 19.0542 211.67 19.3629C211.67 19.6716 211.657 19.993 211.631 20.3276H197.085C197.188 21.8194 197.703 22.9898 198.629 23.8384C199.581 24.6873 200.725 25.1116 202.063 25.1116C203.066 25.1116 203.902 24.8931 204.57 24.456C205.265 23.9929 205.78 23.4013 206.114 22.6812H211.13C210.769 23.89 210.165 24.9959 209.316 25.999C208.493 26.9765 207.464 27.7482 206.23 28.3142C205.021 28.8801 203.645 29.1631 202.101 29.1631ZM202.14 13.1125C200.931 13.1125 199.863 13.4597 198.937 14.1542C198.012 14.823 197.42 15.8519 197.163 17.2408H206.693C206.615 15.9805 206.152 14.9773 205.304 14.2314C204.455 13.4854 203.4 13.1125 202.14 13.1125Z" fill="#242424"/>
<path d="M15.6818 1.16716V13.3765C15.6818 14.77 14.5521 15.8997 13.1585 15.8997H0.949221V10.8533H7.06017L0.639526 4.43263L4.20789 0.864258L10.6353 7.2917V1.16716H15.6818Z" fill="#191919"/>
<path d="M30.5867 16.0723H18.3773C16.9838 16.0723 15.8541 17.202 15.8541 18.5955V30.805H20.9007V24.6933L27.3217 31.1143L30.8899 27.5461L24.4627 21.1185H30.5867V16.0723Z" fill="#191919"/>
</svg>
