<svg width="169" height="38" viewBox="0 0 169 38" fill="none" xmlns="http://www.w3.org/2000/svg">
<path fill-rule="evenodd" clip-rule="evenodd" d="M27.5612 7.28076H12.5153V0.897705H33.9441V22.3265H27.5612V7.28076Z" fill="#242424"/>
<path fill-rule="evenodd" clip-rule="evenodd" d="M15.8082 19.9818C14.8335 19.3305 13.6875 18.9829 12.5152 18.9829V12.5999C14.95 12.5999 17.33 13.3218 19.3544 14.6745C21.3788 16.0271 22.9566 17.9497 23.8884 20.1991C24.8201 22.4486 25.064 24.9237 24.589 27.3116C24.114 29.6994 22.9416 31.893 21.2198 33.6145C19.4982 35.3363 17.3048 36.5087 14.9168 36.9837C12.5289 37.4587 10.0537 37.2148 7.80432 36.2831C5.55494 35.3513 3.63238 33.7737 2.27971 31.7491C0.927049 29.7246 0.205078 27.3448 0.205078 24.9099H6.58813C6.58813 26.0822 6.93575 27.2283 7.58704 28.2028C8.23829 29.1776 9.16399 29.9374 10.247 30.3858C11.3301 30.8345 12.5218 30.9521 13.6716 30.7232C14.8213 30.4946 15.8774 29.9301 16.7063 29.101C17.5353 28.2722 18.0998 27.2159 18.3285 26.0662C18.5572 24.9164 18.4398 23.7247 17.9912 22.6418C17.5426 21.5588 16.7829 20.6331 15.8082 19.9818Z" fill="#242424"/>
<path d="M50.8641 34.4882V0.915894H63.2859C65.9717 0.915894 68.1939 1.36353 69.9524 2.25881C71.7109 3.15404 73.0218 4.38504 73.885 5.95173C74.7482 7.51842 75.1799 9.27698 75.1799 11.2274C75.1799 13.0818 74.7643 14.7924 73.9331 16.3591C73.1014 17.8938 71.8066 19.1408 70.048 20.1C68.2895 21.0272 66.0353 21.4908 63.2859 21.4908H57.0029V34.4882H50.8641ZM57.0029 16.503H62.9018C65.0444 16.503 66.5791 16.0393 67.5064 15.1121C68.4653 14.1529 68.945 12.858 68.945 11.2274C68.945 9.56474 68.4653 8.2698 67.5064 7.34257C66.5791 6.38335 65.0444 5.90377 62.9018 5.90377H57.0029V16.503Z" fill="#242424"/>
<path d="M87.7951 35.0633C85.3972 35.0633 83.2711 34.5516 81.4165 33.5286C79.5619 32.5056 78.1073 31.0666 77.0522 29.212C75.9972 27.3578 75.4695 25.2157 75.4695 22.7857C75.4695 20.3236 75.9812 18.1334 77.0042 16.215C78.0592 14.2966 79.4982 12.8098 81.3208 11.7547C83.175 10.6676 85.3491 10.124 87.8432 10.124C90.1775 10.124 92.2395 10.6356 94.03 11.6588C95.8206 12.6819 97.2115 14.0887 98.2025 15.8792C99.2259 17.6378 99.7372 19.6042 99.7372 21.7783C99.7372 22.1298 99.7211 22.4978 99.6896 22.8814C99.6896 23.265 99.6735 23.665 99.6415 24.0806H81.5602C81.6884 25.9348 82.3278 27.3898 83.4789 28.4448C84.6616 29.4999 86.0847 30.0276 87.7475 30.0276C88.9943 30.0276 90.0333 29.7557 90.8645 29.212C91.7282 28.6366 92.3676 27.9011 92.7832 27.0058H99.0181C98.5705 28.5089 97.8189 29.8834 96.7639 31.1307C95.7405 32.3454 94.4616 33.3048 92.9269 34.0083C91.4243 34.7118 89.7138 35.0633 87.7951 35.0633ZM87.8432 15.1119C86.3405 15.1119 85.0136 15.5435 83.8625 16.4068C82.7113 17.2381 81.9763 18.5171 81.6563 20.2436H93.5027C93.4066 18.6769 92.8313 17.43 91.7758 16.5027C90.7208 15.5755 89.4099 15.1119 87.8432 15.1119Z" fill="#242424"/>
<path d="M102.503 34.488V10.6995H107.922L108.402 14.7282C109.137 13.3214 110.192 12.2023 111.567 11.371C112.974 10.5397 114.621 10.124 116.507 10.124C119.448 10.124 121.735 11.0512 123.365 12.9057C124.996 14.7602 125.811 17.4779 125.811 21.0589V34.488H119.672V21.6346C119.672 19.5882 119.257 18.0215 118.425 16.9344C117.594 15.8473 116.299 15.3037 114.54 15.3037C112.814 15.3037 111.391 15.9112 110.272 17.1262C109.185 18.3412 108.641 20.0358 108.641 22.2099V34.488H102.503Z" fill="#242424"/>
<path d="M139.883 34.4882C137.389 34.4882 135.39 33.8804 133.888 32.6656C132.385 31.4504 131.633 29.2923 131.633 26.1909V15.8316H127.557V10.6998H131.633L132.353 4.32117H137.772V10.6998H144.199V15.8316H137.772V26.239C137.772 27.3901 138.012 28.1893 138.492 28.6369C139.003 29.0525 139.867 29.2603 141.081 29.2603H144.055V34.4882H139.883Z" fill="#242424"/>
<path d="M155.273 35.0633C153.227 35.0633 151.548 34.7434 150.237 34.1039C148.926 33.4325 147.951 32.5532 147.311 31.4662C146.672 30.3791 146.352 29.1804 146.352 27.8695C146.352 25.6633 147.216 23.8728 148.942 22.4978C150.668 21.1229 153.259 20.4355 156.712 20.4355H162.755V19.8599C162.755 18.2293 162.291 17.0303 161.364 16.2629C160.436 15.4956 159.285 15.1119 157.911 15.1119C156.664 15.1119 155.576 15.4156 154.649 16.0231C153.722 16.5987 153.147 17.462 152.923 18.613H146.928C147.087 16.8864 147.663 15.3837 148.654 14.1048C149.678 12.8258 150.988 11.8506 152.587 11.1792C154.186 10.4757 155.976 10.124 157.958 10.124C161.348 10.124 164.018 10.9713 165.968 12.6659C167.918 14.3605 168.893 16.7585 168.893 19.8599V34.488H163.666L163.09 30.651C162.387 31.9298 161.396 32.9848 160.117 33.8165C158.87 34.6477 157.255 35.0633 155.273 35.0633ZM156.664 30.2674C158.422 30.2674 159.781 29.6916 160.74 28.541C161.731 27.3898 162.355 25.9668 162.611 24.2724H157.383C155.752 24.2724 154.586 24.5758 153.882 25.1837C153.179 25.759 152.827 26.4785 152.827 27.3418C152.827 28.2691 153.179 28.9886 153.882 29.4999C154.586 30.0116 155.512 30.2674 156.664 30.2674Z" fill="#242424"/>
</svg>
