<svg width="199" height="34" viewBox="0 0 199 34" fill="none" xmlns="http://www.w3.org/2000/svg">
<path fill-rule="evenodd" clip-rule="evenodd" d="M20.2041 1.58301C17.0404 1.58301 14.4758 4.14766 14.4758 7.31135C14.4758 10.475 17.0404 13.0397 20.2041 13.0397C23.3679 13.0397 25.9324 10.475 25.9324 7.31135C25.9324 4.14766 23.3679 1.58301 20.2041 1.58301ZM9.00391 12.7271C14.9668 12.7271 19.8006 17.561 19.8006 23.5239V32.3728H14.4303V23.5239C14.4303 22.8888 14.3213 22.2795 14.1208 21.7131L6.23257 29.6014L2.43518 25.8038L10.0423 18.1967C9.7062 18.1315 9.35903 18.0974 9.00391 18.0974H0.154907V12.7271H9.00391ZM31.538 12.7271C25.5751 12.7271 20.7411 17.561 20.7411 23.5239V32.3728H26.1115V23.5239C26.1115 23.0263 26.1784 22.5448 26.3037 22.0868L34.5554 30.3385L38.3529 26.5413L30.1012 18.2896C30.5588 18.1643 31.0407 18.0974 31.538 18.0974H40.3868V12.7271H31.538Z" fill="#242424"/>
<path d="M48.9794 32.6829V1.81482H57.7215L67.0945 28.2667H67.7705V1.81482H72.7724V32.6829H64.2107L54.6121 6.1859H53.9813V32.6829H48.9794Z" fill="#242424"/>
<path d="M92.8111 28.6273L94.0727 28.4919L94.1629 32.142C90.7381 32.8329 87.7039 33.1784 85.0603 33.1784C81.7257 33.1784 79.3223 32.2623 77.8504 30.4295C76.4083 28.5972 75.6873 25.6679 75.6873 21.6423C75.6873 13.6513 78.9467 9.65576 85.4659 9.65576C91.7746 9.65576 94.9291 13.0956 94.9291 19.975L94.6137 23.49H80.6441C80.6741 25.3524 81.0798 26.7194 81.861 27.5908C82.6418 28.4619 84.099 28.8976 86.2321 28.8976C88.3648 28.8976 90.558 28.8074 92.8111 28.6273ZM90.1073 19.7047C90.1073 17.4816 89.7468 15.9345 89.0257 15.0633C88.3351 14.162 87.1482 13.7114 85.4659 13.7114C83.7836 13.7114 82.552 14.1771 81.7708 15.1084C81.0196 16.0396 80.629 17.5718 80.5993 19.7047H90.1073Z" fill="#242424"/>
<path d="M109.521 14.3417H103.302V24.2556C103.302 26.088 103.438 27.3049 103.708 27.9057C103.978 28.5064 104.669 28.8068 105.781 28.8068L109.476 28.6718L109.701 32.5922C107.689 32.9828 106.157 33.1779 105.105 33.1779C102.552 33.1779 100.794 32.5922 99.8329 31.4204C98.9013 30.2489 98.4359 28.0406 98.4359 24.7962V14.3417H95.5516V10.1509H98.4359V3.61682H103.302V10.1509H109.521V14.3417Z" fill="#242424"/>
<path d="M109.539 10.1521H114.361L117.921 28.4926H118.822L123.103 10.6027H128.15L132.431 28.4926H133.332L136.847 10.1521H141.714L136.937 32.6836H129.141L125.626 17.2269L122.112 32.6836H114.316L109.539 10.1521Z" fill="#242424"/>
<path d="M144.849 12.5848C146.411 10.6321 148.995 9.65576 152.6 9.65576C156.205 9.65576 158.773 10.6321 160.306 12.5848C161.868 14.5376 162.649 17.4666 162.649 21.372C162.649 25.2776 161.898 28.2216 160.395 30.2044C158.894 32.1871 156.295 33.1784 152.6 33.1784C148.905 33.1784 146.306 32.1871 144.804 30.2044C143.302 28.2216 142.551 25.2776 142.551 21.372C142.551 17.4666 143.317 14.5376 144.849 12.5848ZM148.544 27.2303C149.235 28.4318 150.587 29.0325 152.6 29.0325C154.613 29.0325 155.965 28.4318 156.656 27.2303C157.347 26.0284 157.692 24.0607 157.692 21.3269C157.692 18.5934 157.316 16.6555 156.565 15.5139C155.844 14.3723 154.522 13.8015 152.6 13.8015C150.677 13.8015 149.34 14.3723 148.589 15.5139C147.868 16.6555 147.508 18.5934 147.508 21.3269C147.508 24.0607 147.853 26.0284 148.544 27.2303Z" fill="#242424"/>
<path d="M165.275 32.6829V10.1515H170.142V12.8552C172.695 11.2029 175.249 10.1364 177.802 9.65576V14.5676C175.219 15.0783 173.01 15.7392 171.178 16.5504L170.187 16.9559V32.6829H165.275Z" fill="#242424"/>
<path d="M184.216 32.6827H179.304V0.778198H184.216V19.2089L187.01 18.9386L192.327 10.1512H197.825L191.336 20.6958L198.185 32.6827H192.642L187.145 23.1744L184.216 23.4898V32.6827Z" fill="#242424"/>
</svg>
