<svg width="349" height="188" viewBox="0 0 349 188" fill="none" xmlns="http://www.w3.org/2000/svg">
<path opacity="0.7" fill-rule="evenodd" clip-rule="evenodd" d="M57.3255 94.1836H86.1857L115.046 50.4561H86.1857L57.3255 94.1836ZM115.044 137.912H86.1834L57.3232 94.1845H86.1834L115.044 137.912Z" fill="black"/>
<path d="M79.1919 94.1836H108.052L79.1919 50.4561H50.3317L79.1919 94.1836Z" fill="black"/>
<path d="M79.1903 137.912H50.3301L79.1903 94.1841H108.05L79.1903 137.912Z" fill="black"/>
<path d="M129.331 93.7741C129.331 89.826 130.213 86.2996 131.976 83.1949C133.777 80.0518 136.211 77.6178 139.278 75.8929C142.383 74.1297 145.851 73.2481 149.684 73.2481C154.169 73.2481 158.098 74.398 161.471 76.6979C164.844 78.9977 167.201 82.1791 168.543 86.2421H159.286C158.366 84.3256 157.063 82.8882 155.377 81.93C153.728 80.9717 151.812 80.4926 149.627 80.4926C147.289 80.4926 145.2 81.0484 143.36 82.16C141.558 83.2332 140.14 84.7664 139.105 86.7596C138.109 88.7528 137.61 91.0909 137.61 93.7741C137.61 96.4189 138.109 98.757 139.105 100.789C140.14 102.782 141.558 104.334 143.36 105.446C145.2 106.519 147.289 107.056 149.627 107.056C151.812 107.056 153.728 106.576 155.377 105.618C157.063 104.622 158.366 103.165 159.286 101.248H168.543C167.201 105.35 164.844 108.55 161.471 110.85C158.136 113.112 154.207 114.242 149.684 114.242C145.851 114.242 142.383 113.38 139.278 111.655C136.211 109.892 133.777 107.458 131.976 104.353C130.213 101.248 129.331 97.7221 129.331 93.7741Z" fill="black"/>
<path d="M187.262 114.415C184.196 114.415 181.436 113.744 178.983 112.403C176.53 111.023 174.594 109.087 173.176 106.596C171.796 104.104 171.106 101.229 171.106 97.9712C171.106 94.7132 171.815 91.8384 173.233 89.3469C174.69 86.8554 176.664 84.9389 179.155 83.5973C181.647 82.2174 184.426 81.5275 187.492 81.5275C190.559 81.5275 193.338 82.2174 195.829 83.5973C198.321 84.9389 200.276 86.8554 201.694 89.3469C203.15 91.8384 203.879 94.7132 203.879 97.9712C203.879 101.229 203.131 104.104 201.636 106.596C200.18 109.087 198.187 111.023 195.657 112.403C193.165 113.744 190.367 114.415 187.262 114.415ZM187.262 107.401C188.719 107.401 190.08 107.056 191.345 106.366C192.648 105.637 193.683 104.564 194.449 103.146C195.216 101.728 195.599 100.003 195.599 97.9712C195.599 94.9431 194.794 92.6242 193.184 91.0143C191.613 89.3661 189.677 88.542 187.377 88.542C185.078 88.542 183.142 89.3661 181.57 91.0143C180.037 92.6242 179.27 94.9431 179.27 97.9712C179.27 100.999 180.018 103.337 181.513 104.986C183.046 106.596 184.963 107.401 187.262 107.401Z" fill="black"/>
<path d="M215.533 107.516H224.318V113.898H207.483V71.3506H215.533V107.516Z" fill="black"/>
<path d="M226.464 97.856C226.464 94.6363 227.097 91.7807 228.361 89.2892C229.665 86.7977 231.409 84.8812 233.594 83.5396C235.817 82.1981 238.289 81.5273 241.011 81.5273C243.387 81.5273 245.457 82.0064 247.22 82.9647C249.022 83.923 250.459 85.1304 251.532 86.5869V82.0448H259.639V113.897H251.532V109.24C250.497 110.735 249.06 111.981 247.22 112.977C245.419 113.936 243.33 114.415 240.953 114.415C238.27 114.415 235.817 113.725 233.594 112.345C231.409 110.965 229.665 109.029 228.361 106.538C227.097 104.008 226.464 101.114 226.464 97.856ZM251.532 97.971C251.532 96.0162 251.149 94.3488 250.382 92.9689C249.616 91.5507 248.581 90.4774 247.278 89.7492C245.974 88.9826 244.575 88.5993 243.08 88.5993C241.585 88.5993 240.206 88.9634 238.941 89.6917C237.676 90.42 236.641 91.4932 235.836 92.9114C235.069 94.2913 234.686 95.9395 234.686 97.856C234.686 99.7726 235.069 101.459 235.836 102.916C236.641 104.334 237.676 105.426 238.941 106.193C240.244 106.96 241.624 107.343 243.08 107.343C244.575 107.343 245.974 106.979 247.278 106.25C248.581 105.484 249.616 104.411 250.382 103.031C251.149 101.612 251.532 99.9259 251.532 97.971Z" fill="black"/>
<path d="M273.25 86.7019C274.285 85.1687 275.703 83.923 277.505 82.9647C279.345 82.0064 281.434 81.5273 283.772 81.5273C286.493 81.5273 288.947 82.1981 291.131 83.5396C293.355 84.8812 295.099 86.7977 296.364 89.2892C297.667 91.7424 298.318 94.598 298.318 97.856C298.318 101.114 297.667 104.008 296.364 106.538C295.099 109.029 293.355 110.965 291.131 112.345C288.947 113.725 286.493 114.415 283.772 114.415C281.395 114.415 279.306 113.955 277.505 113.035C275.742 112.077 274.324 110.85 273.25 109.355V113.897H265.201V71.3506H273.25V86.7019ZM290.096 97.856C290.096 95.9395 289.694 94.2913 288.889 92.9114C288.122 91.4932 287.088 90.42 285.784 89.6917C284.519 88.9634 283.14 88.5993 281.645 88.5993C280.188 88.5993 278.808 88.9826 277.505 89.7492C276.24 90.4774 275.205 91.5507 274.4 92.9689C273.634 94.3871 273.25 96.0545 273.25 97.971C273.25 99.8876 273.634 101.555 274.4 102.973C275.205 104.391 276.24 105.484 277.505 106.25C278.808 106.979 280.188 107.343 281.645 107.343C283.14 107.343 284.519 106.96 285.784 106.193C287.088 105.426 288.122 104.334 288.889 102.916C289.694 101.497 290.096 99.8109 290.096 97.856Z" fill="black"/>
</svg>
