<svg width="451" height="165" viewBox="0 0 451 165" fill="none" xmlns="http://www.w3.org/2000/svg">
<path d="M162.589 108.043C157.528 108.043 153.054 107.048 149.167 105.06C145.28 103.026 142.275 100.156 140.151 96.4506C138.027 92.7447 136.965 88.3836 136.965 83.3672C136.965 78.3507 138.027 73.9896 140.151 70.2838C142.275 66.5327 145.28 63.663 149.167 61.6745C153.054 59.6408 157.528 58.6239 162.589 58.6239C166.024 58.6239 169.052 58.9855 171.673 59.7086C174.34 60.3865 176.78 61.4711 178.994 62.9625V72.792C177.006 71.165 174.724 69.99 172.148 69.2669C169.617 68.4986 166.725 68.1145 163.471 68.1145C160.443 68.1145 157.708 68.7472 155.268 70.0126C152.873 71.2328 150.975 72.9953 149.574 75.3002C148.173 77.605 147.472 80.294 147.472 83.3672C147.472 86.4855 148.105 89.2197 149.37 91.5697C150.681 93.8746 152.511 95.6597 154.861 96.9251C157.211 98.1905 159.923 98.8232 162.996 98.8232C165.798 98.8232 168.238 98.3261 170.317 97.3318V88.1802H162.657V80.5878H180.282V103.433C175.808 106.506 169.911 108.043 162.589 108.043Z" fill="black"/>
<path d="M182.662 74.4867H192.559V79.1642C193.87 77.5825 195.7 76.3848 198.05 75.5714C200.4 74.7127 203.067 74.2834 206.049 74.2834V82.0792C202.931 82.0792 200.174 82.5537 197.779 83.5028C195.429 84.4518 193.802 85.898 192.898 87.8413V107.026H182.662V74.4867Z" fill="black"/>
<path d="M225.721 108.043C219.484 108.043 214.58 106.551 211.01 103.568C207.44 100.541 205.655 96.315 205.655 90.8918C205.655 85.5138 207.237 81.2657 210.4 78.1474C213.609 75.029 218.173 73.4699 224.094 73.4699C227.98 73.4699 231.279 74.193 233.991 75.6391C236.702 77.0853 238.759 79.0964 240.16 81.6724C241.561 84.2032 242.261 87.073 242.261 90.2817V94.4169H215.417C216.14 98.5747 220.026 100.654 227.076 100.654C229.155 100.654 231.302 100.473 233.516 100.111C235.731 99.7497 237.652 99.2525 239.279 98.6198V105.806C237.697 106.483 235.663 107.026 233.177 107.433C230.692 107.839 228.206 108.043 225.721 108.043ZM232.567 87.7735C232.432 85.6042 231.618 83.9321 230.127 82.7571C228.636 81.5368 226.579 80.9267 223.958 80.9267C221.382 80.9267 219.348 81.5368 217.857 82.7571C216.366 83.9773 215.552 85.6494 215.417 87.7735H232.567Z" fill="black"/>
<path d="M263.243 108.043C257.007 108.043 252.103 106.551 248.533 103.568C244.963 100.541 243.177 96.315 243.177 90.8918C243.177 85.5138 244.759 81.2657 247.923 78.1474C251.131 75.029 255.696 73.4699 261.616 73.4699C265.503 73.4699 268.802 74.193 271.514 75.6391C274.225 77.0853 276.281 79.0964 277.682 81.6724C279.083 84.2032 279.784 87.073 279.784 90.2817V94.4169H252.939C253.662 98.5747 257.549 100.654 264.599 100.654C266.678 100.654 268.825 100.473 271.039 100.111C273.253 99.7497 275.174 99.2525 276.801 98.6198V105.806C275.219 106.483 273.186 107.026 270.7 107.433C268.214 107.839 265.729 108.043 263.243 108.043ZM270.09 87.7735C269.954 85.6042 269.141 83.9321 267.65 82.7571C266.158 81.5368 264.102 80.9267 261.481 80.9267C258.905 80.9267 256.871 81.5368 255.38 82.7571C253.888 83.9773 253.075 85.6494 252.939 87.7735H270.09Z" fill="black"/>
<path d="M282.056 74.4867H291.953V78.4863C293.445 76.8142 295.207 75.5714 297.241 74.7579C299.32 73.8992 301.489 73.4699 303.749 73.4699C308.178 73.4699 311.477 74.6675 313.646 77.0627C315.86 79.4128 316.968 82.5989 316.968 86.6211V107.026H306.731V87.7735C306.731 83.5705 304.788 81.4691 300.901 81.4691C299.184 81.4691 297.58 81.8984 296.088 82.7571C294.597 83.5705 293.332 84.7908 292.292 86.4177V107.026H282.056V74.4867Z" fill="black"/>
<path d="M325.999 69.4703C324.418 69.4703 323.085 68.9506 322 67.9111C320.915 66.8717 320.373 65.5611 320.373 63.9793C320.373 62.4428 320.915 61.1548 322 60.1153C323.085 59.0307 324.418 58.4884 325.999 58.4884C327.581 58.4884 328.914 59.0307 329.999 60.1153C331.084 61.1548 331.626 62.4428 331.626 63.9793C331.626 65.5611 331.084 66.8717 329.999 67.9111C328.914 68.9506 327.581 69.4703 325.999 69.4703ZM320.847 74.4867H331.152V107.026H320.847V74.4867Z" fill="black"/>
<path d="M348.609 108.043C346.169 108.043 343.548 107.771 340.746 107.229C337.989 106.732 335.82 106.009 334.238 105.06V97.0607C336.046 98.1453 338.215 99.0266 340.746 99.7045C343.277 100.382 345.627 100.721 347.796 100.721C349.649 100.721 351.005 100.563 351.863 100.247C352.722 99.9304 353.151 99.3429 353.151 98.4843C353.151 97.8064 352.903 97.2641 352.406 96.8573C351.909 96.4054 351.14 96.0212 350.101 95.7049C349.107 95.3433 347.434 94.8236 345.084 94.1457C342.328 93.3323 340.158 92.5188 338.577 91.7053C337.04 90.8466 335.865 89.7846 335.052 88.5192C334.283 87.2538 333.899 85.6268 333.899 83.6383C333.899 80.2488 335.232 77.718 337.899 76.0459C340.61 74.3285 344.271 73.4699 348.881 73.4699C351.14 73.4699 353.468 73.7184 355.863 74.2156C358.303 74.6675 360.179 75.2776 361.49 76.0459V83.8417C360.179 82.983 358.462 82.2825 356.337 81.7402C354.259 81.1979 352.225 80.9267 350.236 80.9267C348.383 80.9267 346.937 81.1075 345.898 81.4691C344.904 81.8306 344.406 82.5085 344.406 83.5028C344.406 84.3614 344.881 85.0167 345.83 85.4687C346.824 85.9206 348.655 86.4855 351.321 87.1634L352.677 87.5023C355.524 88.2706 357.738 89.1293 359.32 90.0784C360.902 90.9822 362.009 92.0894 362.642 93.4C363.32 94.6654 363.659 96.2698 363.659 98.2131C363.659 101.196 362.371 103.591 359.795 105.399C357.219 107.161 353.49 108.043 348.609 108.043Z" fill="black"/>
<path d="M366.025 56.9292H376.261V78.2152C377.798 76.6334 379.538 75.4584 381.481 74.6901C383.424 73.8766 385.503 73.4699 387.718 73.4699C392.147 73.4699 395.446 74.6675 397.615 77.0627C399.829 79.4128 400.937 82.5989 400.937 86.6211V107.026H390.701V87.7735C390.701 83.5705 388.757 81.4691 384.871 81.4691C383.153 81.4691 381.549 81.8984 380.058 82.7571C378.566 83.5705 377.301 84.7908 376.261 86.4177V107.026H366.025V56.9292Z" fill="black"/>
<path fill-rule="evenodd" clip-rule="evenodd" d="M102.006 66.5208C102.006 75.1318 95.0259 82.1124 86.4149 82.1124C77.8038 82.1124 70.8232 75.1318 70.8232 66.5208C70.8232 57.9098 77.8038 50.9292 86.4149 50.9292C95.0259 50.9292 102.006 57.9098 102.006 66.5208ZM50.1475 80.9793C67.1342 79.8343 81.9386 92.5522 83.3176 109.575C83.4605 111.339 83.4536 113.08 83.3077 114.787C66.321 115.932 51.5166 103.214 50.1376 86.1914C49.9948 84.4275 50.0016 82.6859 50.1475 80.9793ZM94.2984 114.191C111.321 112.812 124.039 98.0077 122.894 81.021C121.187 80.8751 119.446 80.8683 117.682 81.0112C100.659 82.3901 87.9413 97.1945 89.0863 114.181C90.7929 114.327 92.5344 114.334 94.2984 114.191Z" fill="black"/>
</svg>
