<svg width="358" height="151" viewBox="0 0 358 151" fill="none" xmlns="http://www.w3.org/2000/svg">
<path d="M99.504 97.0008C99.9003 101.733 98.2988 106.603 94.6936 110.24C91.0883 113.878 86.2327 115.522 81.4969 115.167C81.1007 110.435 82.7021 105.565 86.3074 101.928C89.9126 98.2907 94.7683 96.6463 99.504 97.0008Z" fill="black"/>
<path d="M90.9259 90.4245C86.1996 95.4788 79.3718 98.5088 71.9174 98.1683C64.4638 97.8279 57.9412 94.1889 53.6953 88.7258C58.4216 83.6715 65.2494 80.6416 72.7038 80.982C80.1574 81.3224 86.68 84.9614 90.9259 90.4245Z" fill="black"/>
<path d="M50.917 74.1586C51.9043 62.3235 57.8753 50.9787 68.276 43.5058C78.6763 36.0333 91.3328 33.9939 102.864 36.8338C101.877 48.6688 95.9056 60.0137 85.5049 67.4865C75.1046 74.9591 62.4481 76.9985 50.917 74.1586Z" fill="black"/>
<path d="M242.636 59.6452V66.8521H246.96V104.529H254.647V66.8521H264.737V59.6452H254.647V52.2707C254.647 50.1565 254.839 48.4591 255.224 47.1777C255.608 45.8965 256.121 44.9998 256.761 44.4871C257.466 43.9107 258.299 43.6225 259.26 43.6225C260.028 43.6225 260.829 43.7826 261.662 44.1027C262.559 44.3591 263.327 45.0316 263.968 46.1207L268.196 39.7788C267.748 39.138 267.107 38.5295 266.274 37.9531C265.506 37.3764 264.577 36.8958 263.488 36.5115C262.399 36.1271 261.149 35.9351 259.74 35.9351C257.049 35.9351 254.743 36.5115 252.821 37.6646C250.964 38.7537 249.522 40.4192 248.497 42.6614C247.472 44.9036 246.96 47.7862 246.96 51.3096V59.6452H242.636Z" fill="black"/>
<path d="M121.917 44.9525L121.917 104.529H156.51V96.8419H130.085V44.9525H121.917Z" fill="black"/>
<path fill-rule="evenodd" clip-rule="evenodd" d="M176.996 105.49C181.737 105.49 185.837 104.561 189.296 102.703C192.819 100.782 195.734 97.9628 198.04 94.2474L191.794 90.3076C190.193 92.9982 188.239 95.0162 185.933 96.3613C183.627 97.6425 180.968 98.2832 177.957 98.2832C174.946 98.2832 172.384 97.6425 170.27 96.3613C168.156 95.0802 166.554 93.2224 165.465 90.7881C164.638 88.9382 164.124 86.7921 163.926 84.35H198.713V83.4851C198.777 82.9727 198.809 82.4921 198.809 82.0438C198.809 77.3673 197.976 73.3316 196.311 69.9362C194.645 66.5409 192.243 63.9465 189.104 62.1527C186.029 60.2951 182.313 59.3662 177.957 59.3662C173.601 59.3662 169.757 60.327 166.426 62.2488C163.159 64.1707 160.597 66.8613 158.739 70.3206C156.945 73.7799 156.048 77.8157 156.048 82.4281C156.048 86.9766 156.913 90.9802 158.643 94.4395C160.436 97.8988 162.903 100.622 166.042 102.607C169.245 104.529 172.896 105.49 176.996 105.49ZM165.561 73.3956C164.947 74.6959 164.496 76.1694 164.208 77.8157H190.406C190.258 75.7105 189.728 73.853 188.815 72.2425C187.79 70.3206 186.349 68.8153 184.491 67.7262C182.634 66.6371 180.455 66.0925 177.957 66.0925C175.01 66.0925 172.48 66.7332 170.366 68.0144C168.316 69.2315 166.714 71.0253 165.561 73.3956Z" fill="black"/>
<path fill-rule="evenodd" clip-rule="evenodd" d="M230.101 80.2945C228.893 79.5021 227.355 78.8041 225.489 78.2001C223.375 77.4313 220.716 77.0469 217.513 77.0469C212.068 77.0469 207.808 78.3602 204.733 80.9868C201.722 83.5491 200.217 86.9766 200.217 91.2686C200.217 94.2793 200.921 96.8419 202.33 98.9558C203.74 101.07 205.598 102.703 207.904 103.856C210.274 104.946 212.805 105.49 215.495 105.49C217.929 105.49 220.364 105.042 222.798 104.145C225.297 103.248 227.379 101.871 229.044 100.013C229.442 99.5853 229.794 99.132 230.101 98.6535V104.529H237.788V72.8189C237.788 69.9362 237.052 67.502 235.578 65.5161C234.169 63.5303 232.151 62.0246 229.525 60.9998C226.962 59.9107 223.951 59.3662 220.492 59.3662C216.392 59.3662 212.869 59.9748 209.922 61.1919C207.039 62.409 204.765 63.6261 203.099 64.8433L206.847 70.5127C207.551 70.0003 208.513 69.3917 209.73 68.687C210.947 67.9822 212.42 67.3737 214.15 66.8613C215.944 66.3489 217.929 66.0925 220.108 66.0925C221.453 66.0925 222.734 66.2206 223.951 66.4769C225.168 66.7332 226.225 67.1495 227.122 67.7262C228.083 68.3026 228.82 69.1035 229.332 70.1283C229.845 71.0894 230.101 72.3386 230.101 73.8761V80.2945ZM209.153 86.7524C208.384 87.9055 208 89.2828 208 90.8843C208 92.5498 208.384 93.9911 209.153 95.2082C209.986 96.4254 211.107 97.3543 212.516 97.995C213.99 98.5714 215.655 98.8599 217.513 98.8599C219.883 98.8599 221.997 98.3794 223.855 97.4183C225.777 96.4575 227.282 95.1121 228.371 93.3825C229.525 91.5887 230.101 89.5388 230.101 87.2326V85.5702C228.87 84.9712 227.621 84.5003 226.353 84.1577C223.983 83.4532 221.453 83.1007 218.762 83.1007C216.264 83.1007 214.214 83.4211 212.612 84.0618C211.075 84.7022 209.922 85.5993 209.153 86.7524Z" fill="black"/>
<path fill-rule="evenodd" clip-rule="evenodd" d="M298.093 102.703C294.634 104.561 290.534 105.49 285.794 105.49C281.694 105.49 278.042 104.529 274.839 102.607C271.7 100.622 269.234 97.8988 267.44 94.4395C265.71 90.9802 264.846 86.9766 264.846 82.4281C264.846 77.8157 265.743 73.7799 267.536 70.3206C269.394 66.8613 271.956 64.1707 275.223 62.2488C278.555 60.327 282.398 59.3662 286.755 59.3662C291.111 59.3662 294.826 60.2951 297.901 62.1527C301.04 63.9465 303.442 66.5409 305.108 69.9362C306.774 73.3316 307.606 77.3673 307.606 82.0438C307.606 82.4921 307.574 82.9727 307.51 83.4851V84.35H272.723C272.922 86.7921 273.435 88.9382 274.263 90.7881C275.352 93.2224 276.953 95.0802 279.067 96.3613C281.181 97.6425 283.744 98.2832 286.755 98.2832C289.765 98.2832 292.424 97.6425 294.73 96.3613C297.036 95.0162 298.99 92.9982 300.592 90.3076L306.838 94.2474C304.531 97.9628 301.617 100.782 298.093 102.703ZM273.006 77.8157C273.294 76.1694 273.745 74.6959 274.359 73.3956C275.512 71.0253 277.113 69.2315 279.163 68.0144C281.277 66.7332 283.808 66.0925 286.755 66.0925C289.253 66.0925 291.431 66.6371 293.289 67.7262C295.146 68.8153 296.588 70.3206 297.613 72.2425C298.525 73.853 299.056 75.7105 299.204 77.8157H273.006Z" fill="black"/>
</svg>
