<svg width="231" height="50" viewBox="0 0 231 50" fill="none" xmlns="http://www.w3.org/2000/svg">
<path d="M71.4028 1.99596L38.1945 0.0400391L38.1867 49.04L71.6487 46.7119L71.4028 1.99596Z" fill="#D7B013"/>
<path d="M65.1266 13.7836V34.9331H60.8363V22.4851L56.3949 34.9331H53.3131L48.8717 22.4851V34.9331H44.5814V13.7836H49.1436L54.854 30.1291L60.5643 13.7836H65.1266Z" fill="#1C1C1C"/>
<path d="M0.0891113 15.1014L38.1933 0.046875V49.0381L0.0891113 39.5941V15.1014Z" fill="#FFD736"/>
<path d="M27.8641 8.56322L33.2001 6.71338V43.3995L27.7463 42.0956L27.8641 8.56322Z" fill="#1C1C1C"/>
<path d="M20.5945 11.3337L24.8888 9.78516L24.8888 41.3018L20.4998 40.3071L20.5945 11.3337Z" fill="#1C1C1C"/>
<path d="M14.1981 14.0472L17.6422 12.7109L17.6421 39.5111L14.1221 38.6727L14.1981 14.0472Z" fill="#1C1C1C"/>
<path d="M8.36189 16.3055L11.2643 15.2549L11.2643 37.9198L8.29785 37.2329L8.36189 16.3055Z" fill="#1C1C1C"/>
<path d="M2.96622 18.0772L5.44037 17.1631L5.44035 36.7413L2.91162 36.1393L2.96622 18.0772Z" fill="#1C1C1C"/>
<path d="M82.2957 34.8834C79.5296 34.8834 77.3692 34.0947 75.8146 32.5173C74.2601 30.9399 73.4828 28.7567 73.4828 25.9677C73.4828 23.1786 74.2601 20.9954 75.8146 19.418C77.3692 17.8406 79.5296 17.0519 82.2957 17.0519C85.0619 17.0519 87.2223 17.8406 88.7768 19.418C90.3542 20.9954 91.143 23.1786 91.143 25.9677C91.143 28.7567 90.3542 30.9399 88.7768 32.5173C87.2223 34.0947 85.0619 34.8834 82.2957 34.8834ZM82.2957 31.6257C83.6903 31.6257 84.7876 31.1228 85.5877 30.1169C86.3879 29.111 86.7879 27.7279 86.7879 25.9677C86.7879 24.2074 86.3879 22.8243 85.5877 21.8184C84.7876 20.8125 83.6903 20.3096 82.2957 20.3096C80.9012 20.3096 79.8039 20.8125 79.0038 21.8184C78.2265 22.8243 77.8378 24.2074 77.8378 25.9677C77.8378 27.7279 78.2265 29.111 79.0038 30.1169C79.8039 31.1228 80.9012 31.6257 82.2957 31.6257ZM109.569 17.3948L102.848 34.5405H99.0758L92.3547 17.3948H96.8812L100.962 29.1911L105.043 17.3948H109.569ZM126.879 27.5794H114.946C115.311 30.0026 116.717 31.2143 119.163 31.2143C120.169 31.2143 121.038 31.0428 121.77 30.6999C122.524 30.357 123.256 29.7854 123.964 28.9853L126.33 31.2485C125.667 32.3459 124.661 33.226 123.313 33.889C121.987 34.552 120.524 34.8834 118.923 34.8834C116.249 34.8834 114.168 34.1062 112.682 32.5516C111.196 30.9742 110.453 28.8024 110.453 26.0362C110.453 23.2472 111.196 21.0525 112.682 19.4523C114.191 17.852 116.26 17.0519 118.889 17.0519C121.404 17.0519 123.358 17.8406 124.753 19.418C126.17 20.9954 126.879 23.19 126.879 26.0019V27.5794ZM122.593 24.3902C122.593 23.2243 122.25 22.3099 121.564 21.6469C120.901 20.9611 119.975 20.6182 118.786 20.6182C117.712 20.6182 116.843 20.9725 116.18 21.6812C115.517 22.367 115.094 23.3386 114.911 24.596H122.593V24.3902ZM129.793 21.5783C129.793 19.6352 129.759 18.2406 129.691 17.3948H133.84C133.931 18.2864 133.977 19.2922 133.977 20.4124V20.7553H134.114C134.549 19.6352 135.314 18.7436 136.412 18.0806C137.509 17.3948 138.766 17.0519 140.184 17.0519C140.458 17.0519 140.801 17.0861 141.213 17.1547V20.6182C141.121 20.5725 140.847 20.5496 140.39 20.5496C139.292 20.5496 138.264 20.8468 137.303 21.4412C136.366 22.0356 135.612 22.8357 135.04 23.8416C134.469 24.8246 134.183 25.8876 134.183 27.0307V34.5405H129.793V21.5783ZM148.807 34.8834C147.321 34.8834 146.006 34.5862 144.863 33.9919C143.743 33.3975 142.954 32.6088 142.497 31.6257L145.206 29.7397C145.618 30.3112 146.143 30.7685 146.784 31.1114C147.424 31.4543 148.075 31.6257 148.738 31.6257C149.515 31.6257 150.156 31.4314 150.659 31.0428C151.161 30.6313 151.413 30.1284 151.413 29.534C151.413 29.0539 151.23 28.6767 150.864 28.4023C150.499 28.1052 149.721 27.7279 148.532 27.2707C146.452 26.4706 144.989 25.659 144.143 24.836C143.297 24.013 142.874 22.9957 142.874 21.7841C142.874 20.3667 143.446 19.2237 144.589 18.3549C145.755 17.4862 147.298 17.0519 149.218 17.0519C150.499 17.0519 151.653 17.3033 152.682 17.8063C153.71 18.2864 154.545 18.9836 155.185 19.8981L152.647 21.7841C151.847 20.8011 150.761 20.3096 149.39 20.3096C148.704 20.3096 148.167 20.4353 147.778 20.6868C147.412 20.9154 147.229 21.2583 147.229 21.7155C147.229 22.0356 147.309 22.2985 147.469 22.5042C147.629 22.71 147.938 22.9271 148.395 23.1557C148.853 23.3844 149.584 23.693 150.59 24.0816C151.939 24.6074 152.979 25.1218 153.71 25.6247C154.465 26.1048 154.991 26.642 155.288 27.2364C155.608 27.808 155.768 28.5052 155.768 29.3282C155.768 30.4255 155.471 31.3971 154.876 32.243C154.305 33.066 153.493 33.7175 152.442 34.1976C151.39 34.6548 150.178 34.8834 148.807 34.8834ZM159.04 10.5365H175.157V14.48H163.978V20.8925H174.402V24.836H163.978V34.5405H159.04V10.5365ZM182.845 34.8834C181.382 34.8834 180.262 34.4948 179.485 33.7175C178.73 32.9174 178.353 31.7743 178.353 30.2884V9.09623H182.708V30.357C182.708 30.8599 182.834 31.2371 183.085 31.4886C183.36 31.7172 183.76 31.8315 184.286 31.8315C184.811 31.8315 185.463 31.6829 186.24 31.3857L186.892 33.7175C185.863 34.4948 184.514 34.8834 182.845 34.8834ZM195.585 34.8834C192.819 34.8834 190.658 34.0947 189.104 32.5173C187.549 30.9399 186.772 28.7567 186.772 25.9677C186.772 23.1786 187.549 20.9954 189.104 19.418C190.658 17.8406 192.819 17.0519 195.585 17.0519C198.351 17.0519 200.512 17.8406 202.066 19.418C203.643 20.9954 204.432 23.1786 204.432 25.9677C204.432 28.7567 203.643 30.9399 202.066 32.5173C200.512 34.0947 198.351 34.8834 195.585 34.8834ZM195.585 31.6257C196.979 31.6257 198.077 31.1228 198.877 30.1169C199.677 29.111 200.077 27.7279 200.077 25.9677C200.077 24.2074 199.677 22.8243 198.877 21.8184C198.077 20.8125 196.979 20.3096 195.585 20.3096C194.19 20.3096 193.093 20.8125 192.293 21.8184C191.516 22.8243 191.127 24.2074 191.127 25.9677C191.127 27.7279 191.516 29.111 192.293 30.1169C193.093 31.1228 194.19 31.6257 195.585 31.6257ZM229.331 17.3948L224.942 34.5405H221.101L217.672 22.127L214.243 34.5405H210.368L205.979 17.3948H210.54L212.7 28.0594L215.718 17.3948H219.593L222.61 28.0594L224.771 17.3948H229.331Z" fill="#1C1C1C"/>
</svg>
