<svg width="607" height="192" viewBox="0 0 607 192" fill="none" xmlns="http://www.w3.org/2000/svg">
<path d="M137.027 112.661C155.863 102.093 179.695 108.637 190.494 127.341L174.242 136.724C155.32 147.649 131.119 141.029 120.392 121.994L137.027 112.661Z" fill="#000000"/>
<path d="M130.136 105.252C140.896 86.6151 164.728 80.2294 183.365 90.9897L173.624 107.863C162.863 126.5 139.032 132.886 120.395 122.125L130.136 105.252Z" fill="#000000" fill-opacity="0.8"/>
<path d="M119.552 103.447C119.552 80.8434 137.876 62.5195 160.479 62.5195V81.6189C160.479 104.222 142.155 122.546 119.552 122.546V103.447Z" fill="#000000" fill-opacity="0.8"/>
<path d="M109.896 104.225C99.1357 85.5879 105.521 61.7564 124.159 50.9961L133.9 67.8691C144.661 86.5065 138.275 110.338 119.638 121.098L109.896 104.225Z" fill="#000000" fill-opacity="0.8"/>
<path d="M119.552 100.718C119.552 79.6218 102.45 62.5195 81.3535 62.5195V84.3474C81.3535 105.444 98.4557 122.546 119.552 122.546V100.718Z" fill="#000000" fill-opacity="0.8"/>
<path d="M111.33 105.252C100.57 86.6151 76.738 80.2294 58.1006 90.9897L67.8422 107.863C78.6025 126.5 102.434 132.886 121.071 122.125L111.33 105.252Z" fill="#000000" fill-opacity="0.8"/>
<path d="M104.438 112.661C85.6025 102.093 61.7706 108.637 50.9717 127.341L67.2233 136.724C86.1457 147.649 110.347 141.029 121.074 121.994L104.438 112.661Z" fill="#000000"/>
<path d="M259.945 77.2078V119.508H251.461V91.9945L240.128 119.508H233.704L222.311 91.9945V119.508H213.827V77.2078H223.463L236.916 108.66L250.37 77.2078H259.945Z" fill="#000000"/>
<path d="M270.212 81.9347C268.717 81.9347 267.464 81.4701 266.454 80.5409C265.485 79.5713 265 78.3794 265 76.9654C265 75.5514 265.485 74.3797 266.454 73.4505C267.464 72.4809 268.717 71.9961 270.212 71.9961C271.706 71.9961 272.939 72.4809 273.908 73.4505C274.918 74.3797 275.423 75.5514 275.423 76.9654C275.423 78.3794 274.918 79.5713 273.908 80.5409C272.939 81.4701 271.706 81.9347 270.212 81.9347ZM274.393 85.9344V119.508H265.909V85.9344H274.393Z" fill="#000000"/>
<path d="M298.956 85.4496C302.956 85.4496 306.188 86.7222 308.652 89.2675C311.117 91.7723 312.349 95.2872 312.349 99.8121V119.508H303.865V100.964C303.865 98.2971 303.198 96.2568 301.865 94.8428C300.532 93.3884 298.714 92.6612 296.411 92.6612C294.067 92.6612 292.209 93.3884 290.835 94.8428C289.502 96.2568 288.836 98.2971 288.836 100.964V119.508H280.351V85.9344H288.836V90.1159C289.967 88.6615 291.401 87.5302 293.138 86.7222C294.916 85.8738 296.855 85.4496 298.956 85.4496Z" fill="#000000"/>
<path d="M315.811 102.6C315.811 99.2061 316.478 96.1962 317.811 93.5702C319.185 90.9441 321.043 88.9241 323.386 87.51C325.73 86.096 328.336 85.389 331.204 85.389C333.386 85.389 335.466 85.8738 337.446 86.8434C339.426 87.7727 341.001 89.0251 342.173 90.6007V74.6626H350.778V119.508H342.173V114.538C341.122 116.195 339.648 117.528 337.749 118.538C335.85 119.548 333.648 120.053 331.143 120.053C328.315 120.053 325.73 119.326 323.386 117.871C321.043 116.417 319.185 114.377 317.811 111.751C316.478 109.084 315.811 106.034 315.811 102.6ZM342.233 102.721C342.233 100.661 341.829 98.9031 341.021 97.4487C340.213 95.9538 339.123 94.8226 337.749 94.055C336.375 93.247 334.901 92.843 333.325 92.843C331.749 92.843 330.295 93.2268 328.962 93.9944C327.628 94.762 326.538 95.8932 325.689 97.3881C324.881 98.8425 324.477 100.58 324.477 102.6C324.477 104.62 324.881 106.397 325.689 107.933C326.538 109.428 327.628 110.579 328.962 111.387C330.335 112.195 331.79 112.599 333.325 112.599C334.901 112.599 336.375 112.215 337.749 111.448C339.123 110.64 340.213 109.508 341.021 108.054C341.829 106.559 342.233 104.781 342.233 102.721Z" fill="#000000"/>
<path d="M372.033 92.9036H366.155V119.508H357.549V92.9036H353.732V85.9344H357.549V84.2376C357.549 80.1167 358.721 77.0866 361.064 75.1474C363.408 73.2081 366.943 72.2991 371.67 72.4203V79.5713C369.609 79.5309 368.175 79.8743 367.367 80.6015C366.559 81.3287 366.155 82.6417 366.155 84.5406V85.9344H372.033V92.9036Z" fill="#000000"/>
<path d="M406.802 85.9344V119.508H398.257V115.265C397.166 116.72 395.732 117.871 393.954 118.72C392.217 119.528 390.318 119.932 388.258 119.932C385.632 119.932 383.309 119.386 381.289 118.296C379.269 117.164 377.673 115.528 376.501 113.387C375.37 111.205 374.804 108.62 374.804 105.63V85.9344H383.288V104.418C383.288 107.084 383.955 109.145 385.288 110.599C386.622 112.013 388.44 112.72 390.742 112.72C393.086 112.72 394.924 112.013 396.257 110.599C397.59 109.145 398.257 107.084 398.257 104.418V85.9344H406.802Z" fill="#000000"/>
<path d="M421.233 74.6626V119.508H412.749V74.6626H421.233Z" fill="#000000"/>
<path d="M445.796 85.4496C449.796 85.4496 453.028 86.7222 455.492 89.2675C457.957 91.7723 459.189 95.2872 459.189 99.8121V119.508H450.705V100.964C450.705 98.2971 450.038 96.2568 448.705 94.8428C447.372 93.3884 445.554 92.6612 443.251 92.6612C440.907 92.6612 439.049 93.3884 437.675 94.8428C436.342 96.2568 435.676 98.2971 435.676 100.964V119.508H427.191V85.9344H435.676V90.1159C436.807 88.6615 438.241 87.5302 439.978 86.7222C441.756 85.8738 443.695 85.4496 445.796 85.4496Z" fill="#000000"/>
<path d="M496.043 101.994C496.043 103.206 495.962 104.297 495.8 105.266H471.257C471.459 107.69 472.307 109.589 473.802 110.963C475.297 112.336 477.135 113.023 479.317 113.023C482.468 113.023 484.71 111.67 486.043 108.963H495.194C494.225 112.195 492.366 114.861 489.619 116.962C486.872 119.023 483.498 120.053 479.498 120.053C476.266 120.053 473.357 119.346 470.772 117.932C468.227 116.478 466.227 114.437 464.772 111.811C463.358 109.185 462.651 106.155 462.651 102.721C462.651 99.2465 463.358 96.1962 464.772 93.5702C466.186 90.9441 468.166 88.9241 470.711 87.51C473.256 86.096 476.186 85.389 479.498 85.389C482.69 85.389 485.538 86.0758 488.043 87.4494C490.588 88.8231 492.548 90.7825 493.922 93.3278C495.336 95.8326 496.043 98.7213 496.043 101.994ZM487.255 99.5697C487.215 97.3881 486.427 95.6508 484.892 94.358C483.357 93.0248 481.478 92.3582 479.256 92.3582C477.155 92.3582 475.377 93.0046 473.923 94.2974C472.509 95.5498 471.64 97.3073 471.317 99.5697H487.255Z" fill="#000000"/>
<path d="M512.659 120.053C509.911 120.053 507.447 119.568 505.265 118.599C503.084 117.589 501.346 116.235 500.054 114.538C498.801 112.841 498.114 110.963 497.993 108.902H506.538C506.7 110.195 507.326 111.266 508.417 112.114C509.548 112.963 510.942 113.387 512.598 113.387C514.214 113.387 515.467 113.064 516.355 112.417C517.285 111.771 517.749 110.943 517.749 109.933C517.749 108.842 517.184 108.034 516.052 107.509C514.962 106.943 513.204 106.337 510.78 105.69C508.275 105.084 506.215 104.458 504.599 103.812C503.023 103.165 501.649 102.176 500.478 100.842C499.347 99.5091 498.781 97.7113 498.781 95.4488C498.781 93.5904 499.306 91.8935 500.357 90.3583C501.447 88.8231 502.983 87.611 504.962 86.7222C506.982 85.8334 509.346 85.389 512.053 85.389C516.052 85.389 519.244 86.399 521.628 88.4191C524.011 90.3987 525.324 93.0854 525.567 96.4791H517.446C517.325 95.1458 516.759 94.0954 515.749 93.3278C514.78 92.5198 513.467 92.1158 511.81 92.1158C510.275 92.1158 509.083 92.3986 508.235 92.9642C507.427 93.5298 507.023 94.3176 507.023 95.3276C507.023 96.4589 507.588 97.3275 508.72 97.9335C509.851 98.4991 511.608 99.0849 513.992 99.6909C516.416 100.297 518.416 100.923 519.991 101.57C521.567 102.216 522.921 103.226 524.052 104.6C525.223 105.933 525.829 107.711 525.87 109.933C525.87 111.872 525.324 113.609 524.234 115.144C523.183 116.68 521.648 117.892 519.628 118.78C517.648 119.629 515.325 120.053 512.659 120.053Z" fill="#000000"/>
<path d="M543.258 120.053C540.51 120.053 538.046 119.568 535.864 118.599C533.683 117.589 531.945 116.235 530.653 114.538C529.4 112.841 528.713 110.963 528.592 108.902H537.137C537.299 110.195 537.925 111.266 539.016 112.114C540.147 112.963 541.541 113.387 543.197 113.387C544.813 113.387 546.066 113.064 546.954 112.417C547.884 111.771 548.348 110.943 548.348 109.933C548.348 108.842 547.783 108.034 546.651 107.509C545.56 106.943 543.803 106.337 541.379 105.69C538.874 105.084 536.814 104.458 535.198 103.812C533.622 103.165 532.248 102.176 531.077 100.842C529.946 99.5091 529.38 97.7113 529.38 95.4488C529.38 93.5904 529.905 91.8935 530.956 90.3583C532.046 88.8231 533.582 87.611 535.561 86.7222C537.581 85.8334 539.945 85.389 542.652 85.389C546.651 85.389 549.843 86.399 552.227 88.4191C554.61 90.3987 555.923 93.0854 556.166 96.4791H548.045C547.924 95.1458 547.358 94.0954 546.348 93.3278C545.379 92.5198 544.066 92.1158 542.409 92.1158C540.874 92.1158 539.682 92.3986 538.834 92.9642C538.026 93.5298 537.622 94.3176 537.622 95.3276C537.622 96.4589 538.187 97.3275 539.319 97.9335C540.45 98.4991 542.207 99.0849 544.591 99.6909C547.015 100.297 549.015 100.923 550.59 101.57C552.166 102.216 553.52 103.226 554.651 104.6C555.822 105.933 556.428 107.711 556.469 109.933C556.469 111.872 555.923 113.609 554.833 115.144C553.782 116.68 552.247 117.892 550.227 118.78C548.247 119.629 545.924 120.053 543.258 120.053Z" fill="#000000"/>
</svg>
